<?xml version="1.0" encoding="utf-8"?><svg viewBox="0 0 637 412" xmlns="http://www.w3.org/2000/svg" xmlns:xlink="http://www.w3.org/1999/xlink"><style>:root>svg{display:none}:root>svg:target{display:block}</style><svg fill="none" viewBox="0 0 52 52" id="about-icon-1" xmlns="http://www.w3.org/2000/svg"><circle cx="26" cy="26" r="26" fill="#fff"/><path d="M30.832 21.814a1.287 1.287 0 00-1.81 0l-4.48 4.48-1.546-1.548a1.273 1.273 0 00-1.394-.277 1.272 1.272 0 00-.79 1.183c0 .342.134.664.375.905l2.452 2.452c.24.239.56.37.904.37.343 0 .664-.131.905-.371l5.384-5.385a1.281 1.281 0 000-1.81z" fill="#3765E4"/><path d="M40.94 15.554a.667.667 0 00-.373-.54L26.291 8.066a.665.665 0 00-.582 0l-14.276 6.946a.665.665 0 00-.372.541c-.018.21-.428 5.2 1.15 11.296.928 3.591 2.359 6.812 4.251 9.575 2.373 3.464 5.48 6.208 9.232 8.154a.665.665 0 00.613 0 25.043 25.043 0 009.231-8.154c1.892-2.763 3.323-5.984 4.252-9.575 1.577-6.096 1.167-11.087 1.15-11.296zM26 33.767c-4.667 0-8.464-3.797-8.464-8.464S21.333 16.84 26 16.84s8.464 3.796 8.464 8.463-3.797 8.464-8.464 8.464z" fill="#3765E4"/></svg><svg fill="none" viewBox="0 0 52 52" id="about-icon-2" xmlns="http://www.w3.org/2000/svg"><circle cx="26" cy="26" r="26" fill="#fff"/><g clip-path="url(#ba)" fill="#3765E4"><path d="M17.703 19.84l-.522-3.118.206-.206-.65-.665a3.579 3.579 0 01-.855-3.626c.016-.047.032-.08.048-.127l-.206-.031-1.33-2.803a1.192 1.192 0 00-2.153 0l-1.314 2.819-2.93.459a1.188 1.188 0 00-.934.807c-.142.412-.031.887.285 1.204l2.154 2.2-.507 3.12a1.197 1.197 0 001.757 1.235l2.597-1.457 2.612 1.425c.396.221.887.19 1.267-.064.364-.269.554-.712.475-1.171zm27.234-6.538a1.168 1.168 0 00-.95-.792l-2.93-.443-1.33-2.803a1.192 1.192 0 00-2.153 0l-1.314 2.819-.174.031c0 .016.016.032.016.048a3.525 3.525 0 01-.808 3.61l-.712.728.253.253-.507 3.12a1.197 1.197 0 001.758 1.235l2.596-1.457 2.613 1.425c.396.221.886.19 1.267-.064.364-.269.554-.712.474-1.171l-.522-3.12 2.153-2.216c.301-.317.412-.776.27-1.203zm-23.068 9.531a1.188 1.188 0 01-1.173-1.374l.684-4.275-2.956-3.005a1.19 1.19 0 01.663-2.006l4.022-.627 1.797-3.859A1.187 1.187 0 0125.978 7h.003a1.188 1.188 0 011.073.68l1.824 3.845 4.025.6a1.192 1.192 0 01.95.793 1.193 1.193 0 01-.272 1.209l-2.936 3.025.713 4.269a1.188 1.188 0 01-1.742 1.237l-3.592-1.967-3.579 1.992c-.176.1-.374.151-.576.15zm-8.535 11.083a3.167 3.167 0 100-6.333 3.167 3.167 0 000 6.333zm4.226 2.217a6.636 6.636 0 00-2.643 5.304v.396h-6.73A1.196 1.196 0 017 40.646v-.792a4.352 4.352 0 014.354-4.354h3.959c.823 0 1.599.237 2.248.633zm21.107-2.216a3.167 3.167 0 100-6.334 3.167 3.167 0 000 6.334zM45 39.854v.792c0 .649-.538 1.187-1.187 1.187h-6.73v-.395a6.636 6.636 0 00-2.643-5.305 4.326 4.326 0 012.248-.633h3.958A4.352 4.352 0 0145 39.854zm-19-5.146a4.75 4.75 0 100-9.5 4.75 4.75 0 000 9.5zm4.355 2.375h-8.709a4.358 4.358 0 00-4.354 4.354v2.375c0 .656.532 1.188 1.188 1.188h15.04a1.188 1.188 0 001.188-1.188v-2.375a4.358 4.358 0 00-4.355-4.354z"/></g><defs><clipPath id="ba"><path fill="#fff" transform="translate(7 7)" d="M0 0h38v38H0z"/></clipPath></defs></svg><svg fill="none" viewBox="0 0 52 52" id="about-icon-3" xmlns="http://www.w3.org/2000/svg"><circle cx="26" cy="26" r="26" fill="#fff"/><g clip-path="url(#ca)" fill="#3765E4"><path d="M38.246 18.207h-1.113a6.687 6.687 0 00-6.68 6.68v3.419l2.962-1.71 1.491 2.585v-4.294c0-1.228 1-2.227 2.227-2.227h1.113v2.783L45 20.433l-6.754-5.01v2.784zM26 7l-5.009 6.754h2.782l.001 11.133h4.453V13.754h2.782L26 7zM13.754 22.66h1.113c1.228 0 2.227 1 2.227 2.227v4.294l1.491-2.585 2.962 1.71v-3.42a6.687 6.687 0 00-6.68-6.679h-1.113v-2.783L7 20.434l6.754 5.01V22.66zM26 37.133a1.113 1.113 0 100-2.227 1.113 1.113 0 000 2.227z"/><path d="M32.599 29.638l-2.285 1.32a6.649 6.649 0 00-2.088-1.21v-2.635h-4.453v2.636c-.76.27-1.462.676-2.086 1.209l-2.287-1.32-2.226 3.857 2.269 1.31a6.678 6.678 0 00-.123 1.215c0 .416.05.82.123 1.214l-2.27 1.31L19.4 42.4l2.286-1.32c.626.533 1.328.94 2.087 1.21V45h4.453v-2.71a6.609 6.609 0 002.087-1.209l2.286 1.32 2.226-3.857-2.269-1.31c.073-.396.123-.798.123-1.215 0-.416-.05-.82-.123-1.214l2.27-1.31-2.227-3.857zm-6.6 9.721a3.344 3.344 0 01-3.34-3.34A3.344 3.344 0 0126 32.68a3.344 3.344 0 013.34 3.34A3.344 3.344 0 0126 39.36z"/></g><defs><clipPath id="ca"><path fill="#fff" transform="translate(7 7)" d="M0 0h38v38H0z"/></clipPath></defs></svg><svg fill="none" viewBox="0 0 52 52" id="about-icon-4" xmlns="http://www.w3.org/2000/svg"><circle cx="26" cy="26" r="26" fill="#fff"/><path d="M30.832 21.814a1.288 1.288 0 00-1.81 0l-4.48 4.48-1.546-1.548a1.273 1.273 0 00-1.394-.277 1.272 1.272 0 00-.693.693 1.271 1.271 0 00-.097.49c0 .342.134.664.375.905l2.452 2.452c.24.239.56.37.904.37.343 0 .664-.131.905-.371l5.384-5.385a1.281 1.281 0 000-1.81z" fill="#3765E4"/><path d="M40.94 15.554a.667.667 0 00-.373-.54L26.291 8.066a.665.665 0 00-.582 0l-14.276 6.946a.665.665 0 00-.372.541c-.018.21-.428 5.2 1.15 11.296.928 3.591 2.359 6.812 4.251 9.575 2.373 3.464 5.48 6.208 9.232 8.154a.665.665 0 00.613 0 25.043 25.043 0 009.231-8.154c1.892-2.763 3.323-5.984 4.252-9.575 1.577-6.096 1.167-11.087 1.15-11.296zM26 33.767c-4.667 0-8.464-3.797-8.464-8.464S21.333 16.84 26 16.84s8.464 3.796 8.464 8.463-3.797 8.464-8.464 8.464z" fill="#3765E4"/></svg><svg fill="none" viewBox="0 0 43 43" id="arrow-icon" xmlns="http://www.w3.org/2000/svg"><path d="M42.581 3A2.08 2.08 0 0040.5.919H21.77a2.081 2.081 0 100 4.162h16.649v16.65a2.081 2.081 0 004.162 0V3zM3.471 42.972l38.5-38.5-2.943-2.944-38.5 38.5 2.944 2.944z" fill="#fff"/></svg><svg fill="none" viewBox="0 0 39 39" id="feedback-arrow-icon" xmlns="http://www.w3.org/2000/svg"><path d="M35 38.5a3.5 3.5 0 003.5-3.5V3.5a3.5 3.5 0 10-7 0v28h-28a3.5 3.5 0 100 7H35zM1.525 6.475l15.5 15.5 4.95-4.95-15.5-15.5-4.95 4.95zm15.5 15.5l15.5 15.5 4.95-4.95-15.5-15.5-4.95 4.95z" fill="#fff"/></svg><svg fill="none" viewBox="0 0 636 412" id="folder-icon" xmlns="http://www.w3.org/2000/svg"><path d="M395.408 0H31.531A27 27 0 009.956 10.767L5.425 16.79A27 27 0 000 33.023V385c0 14.912 12.088 27 27 27h582c14.912 0 27-12.088 27-27V60c0-14.912-12.088-27-27-27H454.264a26.998 26.998 0 01-17.408-6.361l-24.04-20.277A26.997 26.997 0 00395.408 0z" fill="#3765E4"/></svg><svg fill="none" viewBox="0 0 53 22" id="isart-icon" xmlns="http://www.w3.org/2000/svg"><g clip-path="url(#ha)" fill-rule="evenodd" clip-rule="evenodd" fill="#fff"><path d="M.616 18.19c.01-.086.029-.173.048-.25l.058-.318c.01-.048.01-.105.028-.163.01-.048.02-.087.03-.125.009-.087.028-.174.038-.27.01-.086.038-.173.048-.24 0-.058.087-.549.106-.587 0-.077.115-.8.135-.838.01-.134.057-.288.067-.423.01-.154.067-.356.087-.51.01-.135.048-.308.067-.443.01-.077.02-.135.038-.221.01-.058.03-.116.03-.193.028-.096.038-.279.067-.356.01-.144.048-.289.067-.433.01-.058.02-.096.029-.164.01-.048 0-.086.029-.106 0-.125.048-.25.048-.356.029-.163.067-.337.087-.5l.057-.337c.01-.038.02-.125.03-.164.009-.057.018-.077.018-.134.01-.087.03-.174.049-.26.01-.068.038-.173.038-.231a3.05 3.05 0 00.048-.289c.01-.192.087-.385.087-.587.02-.048.048-.212.048-.26.02-.096.038-.202.048-.289l.087-.529c.01-.038.01-.048.01-.087 0-.019 0-.019.009-.038l.01-.02c0-.144.048-.317.067-.452 0-.057.048-.337.067-.365 0-.126.039-.174.039-.29.01-.047.048-.22.048-.278 0-.068.02-.096.029-.164l.077-.404c0-.125.02-.183.038-.299.01-.038.039-.22.049-.269.01-.087.028-.144.038-.24.01-.068.087-.607.116-.636 0-.086.01-.106.028-.183.01-.067.049-.404.077-.433 0-.106.02-.183.039-.289.02-.096.02-.163.048-.24l.106-.606c0-.078.087-.597.106-.626 0-.087.077-.549.106-.606 0-.068.048-.366.067-.405 0-.086.029-.24.048-.327 0-.058.125-.77.135-.808 0-.135.048-.299.067-.433 0-.077.01-.058.02-.116H24.61l-.096.635c-.02.096.01.039-.039.077l.01.048c-.03.145-.106.78-.154.847.01.087-.077.664-.116.722.01.096-.077.578-.106.693l-.058.327-.182 1.001c.01.068-.077.597-.106.645.01.144-.048.366-.077.52l-.087.51c-.01.02-.01.02-.01.038l-.01.03c.01.076-.009.26-.057.317.01.106-.038.308-.058.414-.019.115-.096.673-.134.722.01.086-.058.548-.106.606.01.048-.039.443-.087.5.02.125-.096.597-.115.77-.03.106-.039.222-.058.328l-.067.336c.01.048-.049.54-.106.616.019.077-.01.26-.058.318.01.087-.02.183-.029.28l-.106.528c.01.068-.019.29-.057.337.01.097-.039.433-.087.5.01.097-.02.203-.039.3-.01.066-.028.24-.067.288.01.058 0 .106-.01.163 0 .03-.01.058-.019.087-.01.058 0 .029-.029.067.01.068 0 .106-.01.164 0 .02-.009.058-.009.077-.01.058 0 .029-.029.068l-.058.452c-.038.115.039-.096-.01.029 0 0-.009.019-.009.01 0 0 0 .009-.01.009.01.058 0 .106-.01.164l-.038.144c.02.077-.048.481-.086.539.01.096-.058.548-.106.606.01.096-.039.453-.087.51.01.077-.01.25-.048.308.01.087-.02.193-.038.29l-.068.423c-.01.067-.048.336-.077.394.02.096-.019.221-.038.327-.02.097-.02.231-.068.299.01.086-.019.183-.029.27-.01.076-.019.192-.057.24.019.115-.048.356-.068.481-.019.125-.019.356-.086.443.01.096-.039.452-.087.51.01.086-.067.568-.106.616.01.115-.058.433-.077.568-.019.144.01.163-.135.173H2.752v-.01c-.577 0-1.155 0-1.722.01H0c.01-.077.029-.164.048-.25l.077-.5c.01-.04.029-.213.048-.232 0-.058.067-.5.087-.53 0-.067.019-.163.029-.22.211-1.233.048-.164.298-1.79l.029.028zm4.388 1.675h3.254c1.01-4.976 2.358-12.906 3.253-18.113H8.286c.039 1.145-3.127 17.256-3.272 18.123l-.01-.01zm8.143-5.265c-.03.068-.039.193-.048.28-.01.086-.049.192-.049.288 0 .058-.028.135-.038.193-.01.067-.029.154-.039.23a2.09 2.09 0 00-.067.395c-.029.039-.106.53-.106.616l-.106.54c-.019.144-.067.26-.048.442.03.289.28.471.587.423.231-.038.212-.057.366-.144.058-.096.289-.289.27-.443.038-.057.105-.5.115-.568.029-.125.106-.51.096-.606l.01-.029c0-.01.077-.23.058-.365l.029-.097c.01-.029.01-.067.019-.106.01-.067.038-.144.019-.211.01-.02.01 0 .02-.039l.018-.086c.01-.068.01-.068.01-.126.048-.057.067-.317.087-.413.019-.125.086-.395.077-.5l.067-.29c.02-.105.048-.211.039-.308.028-.038.028-.096.019-.154.086-.134-.048-.654-.096-.798-.049-.135-.299-.54-.376-.578-.02-.048-.23-.337-.279-.366-.02-.057 0-.01-.038-.057l-.27-.337-.067-.106c-.087-.106-.491-.635-.53-.645-.019-.067-.183-.26-.24-.327-.048-.058-.212-.289-.25-.308-.02-.039-.25-.366-.29-.385-.047-.116-.134-.222-.201-.337a1.583 1.583 0 01-.097-.183c-.019-.048-.048-.144-.077-.183-.038-.221-.057-.327-.048-.568l.087-.615.144-.809c.03-.135.106-.481.087-.597.048-.067.087-.375.087-.471.038-.048.115-.54.105-.607.068-.106.097-.558.145-.721.019-.135.096-.434.086-.549.02-.02.01 0 .02-.039l.038-.163c.02-.068.048-.145.039-.212.029-.038.019-.02.038-.077.01-.029.02-.048.03-.077.018-.058.037-.096.037-.164.049-.048.106-.211.135-.288l.154-.289c.048-.029.096-.106.135-.154.048-.067.087-.096.144-.144.048-.039.318-.222.328-.241.086-.029.182-.096.279-.135.096-.038.183-.077.289-.106.22-.067.413-.096.654-.115.683-.02 1.386 0 2.079 0 .664 0 1.29.058 1.646.443.077.077.24.298.288.433.039.115.087.202.116.327a1.921 1.921 0 01.02.664c-.01.077-.03.173-.03.26-.01.087-.038.192-.048.279-.01.096-.029.231-.058.308 0 .067-.029.173-.038.25-.02.096-.039.193-.048.28a2.47 2.47 0 00-.048.288c-.01.067-.03.144-.049.231-.019.096-.038.183-.038.28-.029.086-.038.201-.058.307-.019.125-.038.222-.058.337 0 .067-.038.23-.048.289-.01.057-.01.077-.019.144-.01.048-.029.106-.029.173-.01.068-.029.154-.048.231a1.31 1.31 0 00-.038.26c-.01.058-.03.135-.049.212l-2.57.01c0-.183.116-.51.107-.684.048-.058.096-.423.086-.51.02-.029.01 0 .02-.048l.076-.51c.058-.067.106-.616.145-.741.02-.135.077-.337.067-.462.039-.058.039-.202.068-.27l.01-.096.028-.125c.077-.375-.067-.703-.462-.703-.317 0-.645.193-.74.462-.02.049-.02.077-.04.116-.019.096-.047.23-.047.327-.02.087-.03.145-.049.24-.019.097-.038.174-.038.28l-.039.144-.029.173c-.019.126-.048.241-.057.357-.03.019-.02.077-.03.125-.009.067-.018.086-.028.144-.01.087-.048.212-.048.298-.02.077-.029.145-.048.241-.02.096-.039.173-.039.28-.029.038-.067.317-.077.413-.01.067-.029.337-.01.404.02.058-.019.02.03.048-.049.135.125.472.202.607.048.077-.01.029.067.067-.01.048-.01.01 0 .048 0 .02.02.039.029.058l.462.626c.038.028-.03 0 .038.028 0 .058.231.328.28.366l.346.404c0 .01-.02.01.029.077l.433.54.24.298c.068.086.039.067.097.096.01.058.144.221.183.289.077.115.144.279.202.308-.02.057-.01.019.019.086.02.03.02.039.038.087l.125.356c.039.144.01.154.058.193-.048.115-.019.288-.019.413-.01.077-.02.097-.02.193a4.55 4.55 0 00-.086.577c-.029.03 0-.01-.02.039 0 .01-.009.067-.009.067-.01.068-.019.106-.019.164a3.59 3.59 0 00-.087.49 2.401 2.401 0 00-.048.29c-.01.105-.048.202-.048.327-.02.019-.02.067-.029.106-.01.057-.01.086-.019.134-.02.097-.029.203-.048.29 0 .095-.048.23-.048.346a1.07 1.07 0 00-.048.279c-.02.134-.058.27-.068.414a2.493 2.493 0 00-.067.413c-.029.02-.029.096-.029.135-.01.067-.02.096-.029.164-.02.115-.048.24-.058.356a1.45 1.45 0 00-.048.211 2.077 2.077 0 00-.058.25l-.163.463c-.087.212-.193.337-.231.433-.02.01-.135.173-.164.212-.038.048-.048.057-.086.105l-.106.116c-.077.106-.385.327-.53.385-.076.029-.144.048-.22.096-.088.01-.424.125-.732.135l-.857.02c-.164 0-.27.018-.414.018H11.81c-.106 0-.125-.019-.222-.019-.048 0-.182-.029-.24-.038-.039-.01-.067-.01-.116-.02-.048-.01-.067-.028-.125-.028-.337-.077-.433-.193-.606-.318-.029-.02-.01-.01-.029-.02-.029-.047 0-.009-.039-.057-.01-.02-.019-.02-.028-.038l-.328-.616c-.01-.087-.038-.164-.048-.25-.01-.097.01-.184-.01-.27.03-.058.068-.5.078-.606.019-.154.096-.472.086-.597a.76.76 0 00.058-.327l.01-.03s.086-.317.067-.442c.038-.048.135-.616.125-.703l.039-.144c.01-.067.028-.106.01-.164l.018-.057c0-.01.01-.048.01-.058.01-.039.01-.077.02-.116.009-.076.038-.163.028-.24.048-.067.096-.385.087-.481.038-.058.115-.597.135-.712.057-.049 1.212-.02 1.28-.02h1.309l-.097.568-.038.222c-.02.105-.058.211-.058.327h-.038zM32.3 8.364l.077 1.213c.01.067.01.115.01.211 0 .097.019.106.019.203 0 .269.048.548.048.827l.029.395c.019.144.019.279.019.423 0 .116.029.28.038.395l.03.597c0 .096.019.115.019.202l.048.828c0 .096.019.105.019.202 0 .24.029.356.029.616l.038.413H31.01l.318-1.636c.048-.279.115-.539.163-.818.02-.135.049-.26.077-.404.03-.145.058-.27.077-.414l.318-1.636c.058-.27.096-.549.164-.818l.115-.607c.01-.038.01-.048.02-.105l.028-.106.01.019zm9.278 2.868h-1.665c-.068 0-.039-.058-.039-.135l.193-3.05c0-.097.019-.107.019-.193l.058-1.02c.01-.068.01-.125.01-.202 0-.174.047-.607.047-.809 0-.096.02-.115.02-.202l.019-.414c.01-.115.029-.289.029-.414h1.78c.491 0 .347.366.347.751l-.221 3.446c0 .077.01.144 0 .221-.049.433-.049.991-.097 1.415-.029.26.077.597-.5.597v.01zm-11.646 8.97c.039-.183.077-.385.116-.568.038-.202.077-.385.115-.587.039-.192.077-.385.116-.587.038-.193.077-.395.125-.577h2.54c0 .163.049.423.049.587.01.288.058.587.067.876.01.192.048.394.048.596 0 .087-.01.26.068.26h6.073c.077 0 .048-.135.067-.327.02-.24.02-.5.048-.741.01-.058 0-.125 0-.183l.068-.934c.019-.173.01-.394.038-.568.029-.182.02-.375.039-.567.01-.058 0-.116.01-.183l.096-1.492c0-.077 0-.125.01-.202.028-.212.047-.549.047-.76h.443c.067 0 .058.086.077.144l.49 2.06.184.76c.192.75.375 1.492.539 2.252l.134.568c.02.067.01.163.077.163h3.821c0-.086-.067-.279-.096-.375l-.395-1.473c-.154-.625-.346-1.241-.5-1.867-.154-.616-.346-1.241-.49-1.857-.03-.125-.078-.25-.107-.375.472 0 .828-.126 1.088-.337a1.83 1.83 0 00.693-1.463l.212-3.369c.019-.106.01-.24.028-.337l.039-.683c0-.077.01-.096.02-.154.009-.067 0-.116.009-.183.029-.163.019-.337.029-.5l.048-.674c.01-.164.01-.356.029-.52l.057-1.02h1.146c0 .318-.048.626-.048.943l-.068.943c-.02.164-.01.318-.02.482l-.066.943c0 .173-.01.337-.03.481l-.23 3.792c-.02.135-.02.337-.03.472 0 .086-.018.115-.018.221l-.308 5.005c-.01.144-.039.317-.039.462l-.058.953a3.834 3.834 0 00-.029.48h3.773c.077 0 .048-.105.048-.192 0-.154.039-.308.039-.48l.077-1.194a3.53 3.53 0 00.029-.472c0-.087.02-.125.02-.24 0-.116.018-.145.018-.241 0-.125.01-.347.03-.472.028-.163.009-.327.028-.49.01-.145.029-.309.029-.463l.038-.48c0-.107.01-.145.02-.222l.038-.741c.02-.28.058-.664.067-.943l.049-.963c.01-.144.038-.308.038-.462 0-.164.029-.327.039-.481.01-.337.038-.626.048-.963l.337-5.226c.01-.086.01-.154.01-.25 0-.087.018-.125.018-.24H53.6c-.067-.28-.116-.568-.183-.867l-.26-1.299c-.029-.154-.058-.289-.087-.443-.028-.134-.057-.288-.086-.423-.029-.154-.077-.299-.077-.453h-6.93c-.01.068-.029.116-.048.174-.058.163-.135.346-.173.51h-.039c-.019-.068-.086-.116-.134-.164a1.425 1.425 0 00-.357-.24c-.317-.193-.818-.28-1.241-.28h-7.257c0 .26-.038.462-.038.703 0 .077-.01.106-.01.154-.01.067 0 .125-.01.183-.01.096-.019.25-.029.346-.01.058 0 .116 0 .174l-.057.885c-.03.212-.039.79-.058 1.059l-.029.52c0 .182-.038.336-.038.51l-.106 1.578c-.01.289-.058.587-.048.876 0 .289-.039.587-.049.876l-.134 2.079c0 .413-.068.837-.068 1.25h-.019c0-.346-.125-1-.154-1.385l-.029-.231c-.01-.096-.01-.145-.019-.231l-.327-2.762c-.087-.607-.125-1.242-.222-1.839l-.057-.462-.491-4.157c-.02-.174-.039-.116-.404-.116h-3.62l-.654 2.704c-.51 2.031-.981 4.072-1.491 6.112a17.18 17.18 0 00-.164.674l-1.068 4.398-.087.347-.991 4.07c-.01.03-.087.338-.087.338.01.048 0 .028.058.028h3.705v.039z"/></g><defs><clipPath id="ha"><path fill="#fff" d="M0 0h52.338v21.684H0z"/></clipPath></defs></svg><svg fill="none" viewBox="0 0 637 404" id="pentagon-blue-icon" xmlns="http://www.w3.org/2000/svg"><path d="M0 368V36C0 16.118 16.118 0 36 0h565c19.882 0 36 16.118 36 36v246.638a36 36 0 01-11.416 26.299l-91.318 85.362A36.004 36.004 0 01509.682 404H36c-19.882 0-36-16.118-36-36z" fill="#3765E4"/></svg><svg fill="none" viewBox="0 0 637 404" id="pentagon-icon" xmlns="http://www.w3.org/2000/svg"><path d="M0 368V36C0 16.118 16.118 0 36 0h565c19.882 0 36 16.118 36 36v246.638a36 36 0 01-11.416 26.299l-91.318 85.362A36.004 36.004 0 01509.682 404H36c-19.882 0-36-16.118-36-36z" fill="#1D2221"/></svg><svg fill="none" viewBox="0 0 24 23" id="round-link-arrow-icon" xmlns="http://www.w3.org/2000/svg"><path d="M23.517 1.742a1.5 1.5 0 00-1.5-1.5h-13.5a1.5 1.5 0 100 3h12v12a1.5 1.5 0 103 0v-13.5zm-20.44 21.06l20-20-2.121-2.12-20 20 2.121 2.12z" fill="#fff"/></svg><svg fill="none" viewBox="0 0 9 5" id="select-arrow" xmlns="http://www.w3.org/2000/svg"><path fill-rule="evenodd" clip-rule="evenodd" d="M8.821 1.02L4.932 4.826a.62.62 0 01-.864 0L.179 1.02a.589.589 0 010-.846.62.62 0 01.864 0L4.5 3.557 7.957.175a.62.62 0 01.864 0 .589.589 0 010 .846z" fill="#404040"/></svg></svg>