<?xml version="1.0" encoding="utf-8"?><svg viewBox="0 0 637 412" xmlns="http://www.w3.org/2000/svg" xmlns:xlink="http://www.w3.org/1999/xlink"><style>:root>svg{display:none}:root>svg:target{display:block}</style><svg fill="none" viewBox="0 0 52 52" id="about-icon-1" xmlns="http://www.w3.org/2000/svg"><circle cx="26" cy="26" r="26" fill="#fff"/><path d="M30.832 21.814a1.287 1.287 0 00-1.81 0l-4.48 4.48-1.546-1.548a1.273 1.273 0 00-1.394-.277 1.272 1.272 0 00-.79 1.183c0 .342.134.664.375.905l2.452 2.452c.24.239.56.37.904.37.343 0 .664-.131.905-.371l5.384-5.385a1.281 1.281 0 000-1.81z" fill="#3765E4"/><path d="M40.94 15.554a.667.667 0 00-.373-.54L26.291 8.066a.665.665 0 00-.582 0l-14.276 6.946a.665.665 0 00-.372.541c-.018.21-.428 5.2 1.15 11.296.928 3.591 2.359 6.812 4.251 9.575 2.373 3.464 5.48 6.208 9.232 8.154a.665.665 0 00.613 0 25.043 25.043 0 009.231-8.154c1.892-2.763 3.323-5.984 4.252-9.575 1.577-6.096 1.167-11.087 1.15-11.296zM26 33.767c-4.667 0-8.464-3.797-8.464-8.464S21.333 16.84 26 16.84s8.464 3.796 8.464 8.463-3.797 8.464-8.464 8.464z" fill="#3765E4"/></svg><svg fill="none" viewBox="0 0 52 52" id="about-icon-2" xmlns="http://www.w3.org/2000/svg"><circle cx="26" cy="26" r="26" fill="#fff"/><g clip-path="url(#ba)" fill="#3765E4"><path d="M17.703 19.84l-.522-3.118.206-.206-.65-.665a3.579 3.579 0 01-.855-3.626c.016-.047.032-.08.048-.127l-.206-.031-1.33-2.803a1.192 1.192 0 00-2.153 0l-1.314 2.819-2.93.459a1.188 1.188 0 00-.934.807c-.142.412-.031.887.285 1.204l2.154 2.2-.507 3.12a1.197 1.197 0 001.757 1.235l2.597-1.457 2.612 1.425c.396.221.887.19 1.267-.064.364-.269.554-.712.475-1.171zm27.234-6.538a1.168 1.168 0 00-.95-.792l-2.93-.443-1.33-2.803a1.192 1.192 0 00-2.153 0l-1.314 2.819-.174.031c0 .016.016.032.016.048a3.525 3.525 0 01-.808 3.61l-.712.728.253.253-.507 3.12a1.197 1.197 0 001.758 1.235l2.596-1.457 2.613 1.425c.396.221.886.19 1.267-.064.364-.269.554-.712.474-1.171l-.522-3.12 2.153-2.216c.301-.317.412-.776.27-1.203zm-23.068 9.531a1.188 1.188 0 01-1.173-1.374l.684-4.275-2.956-3.005a1.19 1.19 0 01.663-2.006l4.022-.627 1.797-3.859A1.187 1.187 0 0125.978 7h.003a1.188 1.188 0 011.073.68l1.824 3.845 4.025.6a1.192 1.192 0 01.95.793 1.193 1.193 0 01-.272 1.209l-2.936 3.025.713 4.269a1.188 1.188 0 01-1.742 1.237l-3.592-1.967-3.579 1.992c-.176.1-.374.151-.576.15zm-8.535 11.083a3.167 3.167 0 100-6.333 3.167 3.167 0 000 6.333zm4.226 2.217a6.636 6.636 0 00-2.643 5.304v.396h-6.73A1.196 1.196 0 017 40.646v-.792a4.352 4.352 0 014.354-4.354h3.959c.823 0 1.599.237 2.248.633zm21.107-2.216a3.167 3.167 0 100-6.334 3.167 3.167 0 000 6.334zM45 39.854v.792c0 .649-.538 1.187-1.187 1.187h-6.73v-.395a6.636 6.636 0 00-2.643-5.305 4.326 4.326 0 012.248-.633h3.958A4.352 4.352 0 0145 39.854zm-19-5.146a4.75 4.75 0 100-9.5 4.75 4.75 0 000 9.5zm4.355 2.375h-8.709a4.358 4.358 0 00-4.354 4.354v2.375c0 .656.532 1.188 1.188 1.188h15.04a1.188 1.188 0 001.188-1.188v-2.375a4.358 4.358 0 00-4.355-4.354z"/></g><defs><clipPath id="ba"><path fill="#fff" transform="translate(7 7)" d="M0 0h38v38H0z"/></clipPath></defs></svg><svg fill="none" viewBox="0 0 52 52" id="about-icon-3" xmlns="http://www.w3.org/2000/svg"><circle cx="26" cy="26" r="26" fill="#fff"/><g clip-path="url(#ca)" fill="#3765E4"><path d="M38.246 18.207h-1.113a6.687 6.687 0 00-6.68 6.68v3.419l2.962-1.71 1.491 2.585v-4.294c0-1.228 1-2.227 2.227-2.227h1.113v2.783L45 20.433l-6.754-5.01v2.784zM26 7l-5.009 6.754h2.782l.001 11.133h4.453V13.754h2.782L26 7zM13.754 22.66h1.113c1.228 0 2.227 1 2.227 2.227v4.294l1.491-2.585 2.962 1.71v-3.42a6.687 6.687 0 00-6.68-6.679h-1.113v-2.783L7 20.434l6.754 5.01V22.66zM26 37.133a1.113 1.113 0 100-2.227 1.113 1.113 0 000 2.227z"/><path d="M32.599 29.638l-2.285 1.32a6.649 6.649 0 00-2.088-1.21v-2.635h-4.453v2.636c-.76.27-1.462.676-2.086 1.209l-2.287-1.32-2.226 3.857 2.269 1.31a6.678 6.678 0 00-.123 1.215c0 .416.05.82.123 1.214l-2.27 1.31L19.4 42.4l2.286-1.32c.626.533 1.328.94 2.087 1.21V45h4.453v-2.71a6.609 6.609 0 002.087-1.209l2.286 1.32 2.226-3.857-2.269-1.31c.073-.396.123-.798.123-1.215 0-.416-.05-.82-.123-1.214l2.27-1.31-2.227-3.857zm-6.6 9.721a3.344 3.344 0 01-3.34-3.34A3.344 3.344 0 0126 32.68a3.344 3.344 0 013.34 3.34A3.344 3.344 0 0126 39.36z"/></g><defs><clipPath id="ca"><path fill="#fff" transform="translate(7 7)" d="M0 0h38v38H0z"/></clipPath></defs></svg><svg fill="none" viewBox="0 0 52 52" id="about-icon-4" xmlns="http://www.w3.org/2000/svg"><circle cx="26" cy="26" r="26" fill="#fff"/><path d="M30.832 21.814a1.288 1.288 0 00-1.81 0l-4.48 4.48-1.546-1.548a1.273 1.273 0 00-1.394-.277 1.272 1.272 0 00-.693.693 1.271 1.271 0 00-.097.49c0 .342.134.664.375.905l2.452 2.452c.24.239.56.37.904.37.343 0 .664-.131.905-.371l5.384-5.385a1.281 1.281 0 000-1.81z" fill="#3765E4"/><path d="M40.94 15.554a.667.667 0 00-.373-.54L26.291 8.066a.665.665 0 00-.582 0l-14.276 6.946a.665.665 0 00-.372.541c-.018.21-.428 5.2 1.15 11.296.928 3.591 2.359 6.812 4.251 9.575 2.373 3.464 5.48 6.208 9.232 8.154a.665.665 0 00.613 0 25.043 25.043 0 009.231-8.154c1.892-2.763 3.323-5.984 4.252-9.575 1.577-6.096 1.167-11.087 1.15-11.296zM26 33.767c-4.667 0-8.464-3.797-8.464-8.464S21.333 16.84 26 16.84s8.464 3.796 8.464 8.463-3.797 8.464-8.464 8.464z" fill="#3765E4"/></svg><svg fill="none" viewBox="0 0 43 43" id="arrow-icon" xmlns="http://www.w3.org/2000/svg"><path d="M42.581 3A2.08 2.08 0 0040.5.919H21.77a2.081 2.081 0 100 4.162h16.649v16.65a2.081 2.081 0 004.162 0V3zM3.471 42.972l38.5-38.5-2.943-2.944-38.5 38.5 2.944 2.944z" fill="#fff"/></svg><svg fill="none" viewBox="0 0 636 412" id="folder-icon" xmlns="http://www.w3.org/2000/svg"><path d="M395.408 0H31.531A27 27 0 009.956 10.767L5.425 16.79A27 27 0 000 33.023V385c0 14.912 12.088 27 27 27h582c14.912 0 27-12.088 27-27V60c0-14.912-12.088-27-27-27H454.264a26.998 26.998 0 01-17.408-6.361l-24.04-20.277A26.997 26.997 0 00395.408 0z" fill="#3765E4"/></svg><svg fill="none" viewBox="0 0 637 404" id="pentagon-icon" xmlns="http://www.w3.org/2000/svg"><path d="M0 368V36C0 16.118 16.118 0 36 0h565c19.882 0 36 16.118 36 36v246.638a36 36 0 01-11.416 26.299l-91.318 85.362A36.004 36.004 0 01509.682 404H36c-19.882 0-36-16.118-36-36z" fill="#1D2221"/></svg></svg>