<svg width="52" height="52" viewBox="0 0 52 52" fill="none" xmlns="http://www.w3.org/2000/svg">
<circle cx="26" cy="26" r="26" fill="white"/>
<g clip-path="url(#clip0_91_1407)">
<path d="M17.7032 19.8408L17.1807 16.7217L17.3865 16.5158L16.7373 15.8508C15.7873 14.885 15.4707 13.4917 15.8823 12.225C15.8982 12.1775 15.914 12.1458 15.9298 12.0983L15.724 12.0667L14.394 9.26417C14.2972 9.06062 14.1447 8.88868 13.9541 8.7683C13.7635 8.64792 13.5427 8.58402 13.3173 8.58402C13.0919 8.58402 12.8712 8.64792 12.6806 8.7683C12.49 8.88868 12.3375 9.06062 12.2407 9.26417L10.9265 12.0825L7.99734 12.5417C7.78255 12.5777 7.5818 12.672 7.41704 12.8144C7.25229 12.9569 7.12987 13.1419 7.06317 13.3492C6.92067 13.7608 7.0315 14.2358 7.34817 14.5525L9.5015 16.7533L8.99484 19.8725C8.96026 20.0934 8.98825 20.3196 9.07563 20.5254C9.16301 20.7312 9.30629 20.9084 9.48923 21.037C9.67217 21.1655 9.88746 21.2403 10.1107 21.2527C10.3339 21.2652 10.5562 21.2149 10.7523 21.1075L13.349 19.6508L15.9615 21.0758C16.3573 21.2975 16.8482 21.2658 17.2282 21.0125C17.5923 20.7433 17.7823 20.3 17.7032 19.8408ZM44.9365 13.3017C44.8681 13.0941 44.7427 12.9098 44.5748 12.7699C44.4069 12.6299 44.2031 12.5399 43.9865 12.51L41.0573 12.0667L39.7273 9.26417C39.6305 9.06062 39.478 8.88868 39.2874 8.7683C39.0969 8.64792 38.8761 8.58402 38.6507 8.58402C38.4253 8.58402 38.2045 8.64792 38.0139 8.7683C37.8234 8.88868 37.6708 9.06062 37.574 9.26417L36.2598 12.0825L36.0857 12.1142C36.0857 12.13 36.1015 12.1458 36.1015 12.1617C36.529 13.4283 36.2282 14.8217 35.294 15.7717L34.5815 16.5L34.8348 16.7533L34.3282 19.8725C34.2936 20.0934 34.3216 20.3196 34.409 20.5254C34.4963 20.7312 34.6396 20.9084 34.8226 21.037C35.0055 21.1655 35.2208 21.2403 35.444 21.2527C35.6673 21.2652 35.8896 21.2149 36.0857 21.1075L38.6823 19.6508L41.2948 21.0758C41.6907 21.2975 42.1815 21.2658 42.5615 21.0125C42.9257 20.7433 43.1157 20.3 43.0365 19.8408L42.514 16.7217L44.6673 14.505C44.9682 14.1883 45.079 13.7292 44.9365 13.3017ZM21.8689 22.8333C21.6971 22.8334 21.5274 22.7962 21.3713 22.7243C21.2153 22.6524 21.0768 22.5475 20.9652 22.4168C20.8537 22.2862 20.7718 22.1329 20.7253 21.9675C20.6787 21.8022 20.6686 21.6287 20.6957 21.459L21.3797 17.184L18.4236 14.1788C18.2715 14.0227 18.1653 13.8278 18.1164 13.6154C18.0675 13.403 18.0778 13.1813 18.1462 12.9744C18.2146 12.7674 18.3386 12.5833 18.5044 12.4419C18.6703 12.3006 18.8718 12.2075 19.087 12.1728L23.1087 11.5458L24.9058 7.68717C25.0008 7.48268 25.152 7.30946 25.3418 7.18778C25.5317 7.06609 25.7522 7.00096 25.9777 7H25.9808C26.2057 6.99995 26.426 7.06376 26.6161 7.18401C26.8061 7.30426 26.9581 7.476 27.0543 7.67925L28.8783 11.5252L32.9032 12.1253C33.119 12.1579 33.3216 12.2491 33.4892 12.389C33.6567 12.5288 33.7826 12.712 33.8532 12.9185C33.9228 13.1255 33.9342 13.3476 33.8862 13.5607C33.8381 13.7737 33.7325 13.9695 33.5808 14.1266L30.6453 17.1523L31.3578 21.421C31.3944 21.6408 31.3684 21.8664 31.2829 22.0721C31.1973 22.2778 31.0556 22.4553 30.8739 22.5843C30.6923 22.7132 30.478 22.7885 30.2556 22.8015C30.0332 22.8144 29.8116 22.7646 29.6162 22.6576L26.0236 20.6911L22.4453 22.6829C22.2694 22.7821 22.0708 22.834 21.8689 22.8333Z" fill="#3765E4"/>
<path d="M13.3337 33.9163C15.0826 33.9163 16.5003 32.4986 16.5003 30.7497C16.5003 29.0008 15.0826 27.583 13.3337 27.583C11.5848 27.583 10.167 29.0008 10.167 30.7497C10.167 32.4986 11.5848 33.9163 13.3337 33.9163Z" fill="#3765E4"/>
<path d="M17.5608 36.1333C16.7391 36.752 16.0724 37.5532 15.6135 38.4737C15.1546 39.3943 14.9161 40.4089 14.9167 41.4375V41.8333H8.1875C7.53833 41.8333 7 41.295 7 40.6458V39.8542C7 37.4475 8.9475 35.5 11.3542 35.5H15.3125C16.1358 35.5 16.9117 35.7375 17.5608 36.1333Z" fill="#3765E4"/>
<path d="M38.6667 33.9167C40.4156 33.9167 41.8333 32.4989 41.8333 30.75C41.8333 29.0011 40.4156 27.5834 38.6667 27.5834C36.9178 27.5834 35.5 29.0011 35.5 30.75C35.5 32.4989 36.9178 33.9167 38.6667 33.9167Z" fill="#3765E4"/>
<path d="M45.0003 39.8542V40.6458C45.0003 41.295 44.462 41.8333 43.8128 41.8333H37.0836V41.4375C37.0836 39.2683 36.0386 37.3367 34.4395 36.1333C35.0886 35.7375 35.8645 35.5 36.6878 35.5H40.6461C43.0528 35.5 45.0003 37.4475 45.0003 39.8542Z" fill="#3765E4"/>
<path d="M26 34.7084C28.6234 34.7084 30.75 32.5817 30.75 29.9584C30.75 27.335 28.6234 25.2084 26 25.2084C23.3766 25.2084 21.25 27.335 21.25 29.9584C21.25 32.5817 23.3766 34.7084 26 34.7084Z" fill="#3765E4"/>
<path d="M30.3545 37.083H21.6462C20.4916 37.0838 19.3846 37.5429 18.5682 38.3592C17.7518 39.1756 17.2928 40.2826 17.292 41.4372V43.8122C17.292 44.4677 17.824 44.9997 18.4795 44.9997H33.5212C33.8361 44.9997 34.1382 44.8746 34.3609 44.6519C34.5835 44.4292 34.7087 44.1271 34.7087 43.8122V41.4372C34.7078 40.2826 34.2488 39.1756 33.4324 38.3592C32.616 37.5429 31.509 37.0838 30.3545 37.083Z" fill="#3765E4"/>
</g>
<defs>
<clipPath id="clip0_91_1407">
<rect width="38" height="38" fill="white" transform="translate(7 7)"/>
</clipPath>
</defs>
</svg>
