<svg width="52" height="52" viewBox="0 0 52 52" fill="none" xmlns="http://www.w3.org/2000/svg">
<circle cx="26" cy="26" r="26" fill="white"/>
<path d="M30.8322 21.8135C30.5956 21.577 30.2658 21.4414 29.9274 21.4414C29.5842 21.4414 29.263 21.5735 29.0228 21.8135L24.5428 26.2934L22.9958 24.7461C22.8772 24.6273 22.7363 24.5331 22.5812 24.469C22.4261 24.4049 22.2598 24.3721 22.092 24.3726C21.9239 24.3721 21.7574 24.405 21.6021 24.4693C21.4469 24.5336 21.3059 24.628 21.1873 24.7472C21.0681 24.8657 20.9736 25.0068 20.9093 25.1621C20.8449 25.3174 20.812 25.484 20.8124 25.6521C20.8124 25.9941 20.9457 26.3156 21.1872 26.557L23.6389 29.0088C23.8785 29.248 24.1996 29.3796 24.5426 29.3796C24.8859 29.3796 25.2069 29.2479 25.4477 29.0079L30.8324 23.6233C31.3311 23.1246 31.3312 22.3129 30.8322 21.8135Z" fill="#3765E4"/>
<path d="M40.9391 15.5541C40.9291 15.4395 40.8896 15.3295 40.8245 15.2347C40.7593 15.1399 40.6707 15.0637 40.5673 15.0134L26.2911 8.06711C26.2004 8.02295 26.1008 8 26 8C25.8991 8 25.7995 8.02295 25.7088 8.06711L11.4328 15.0132C11.3293 15.0635 11.2407 15.1398 11.1755 15.2346C11.1104 15.3293 11.0709 15.4394 11.0609 15.554C11.0427 15.7634 10.6333 20.7544 12.2105 26.8502C13.1395 30.4411 14.57 33.6624 16.4622 36.4246C18.8355 39.889 21.9413 42.6326 25.6937 44.5792C25.7883 44.6283 25.8934 44.654 26.0001 44.654C26.1067 44.654 26.2118 44.6283 26.3065 44.5792C30.0587 42.6326 33.1648 39.8891 35.538 36.4246C37.4302 33.6624 38.8608 30.4411 39.7897 26.8502C41.3667 20.7544 40.9573 15.7635 40.9391 15.5541ZM26 33.7668C21.3331 33.7668 17.5364 29.9701 17.5364 25.3032C17.5364 20.6364 21.3331 16.8396 26 16.8396C30.6668 16.8396 34.4635 20.6364 34.4635 25.3032C34.4635 29.9701 30.6668 33.7668 26 33.7668Z" fill="#3765E4"/>
</svg>
