<svg width="52" height="52" viewBox="0 0 52 52" fill="none" xmlns="http://www.w3.org/2000/svg">
<circle cx="26" cy="26" r="26" fill="white"/>
<g clip-path="url(#clip0_91_1423)">
<path d="M38.2461 18.207H37.1328C33.4494 18.207 30.4531 21.2033 30.4531 24.8867V28.3059L33.4146 26.5958L34.9062 29.1806V24.8867C34.9062 23.6593 35.9054 22.6602 37.1328 22.6602H38.2461V25.4434L45 20.4336L38.2461 15.4238V18.207ZM26 7L20.9913 13.7539H23.7734L23.7743 24.8867H28.2266V13.7539H31.0087L26 7ZM13.7539 22.6602H14.8672C16.0946 22.6602 17.0938 23.6593 17.0938 24.8867V29.1806L18.5854 26.5958L21.5469 28.3059V24.8867C21.5469 21.2033 18.5506 18.207 14.8672 18.207H13.7539V15.4238L7 20.4336L13.7539 25.4434V22.6602Z" fill="#3765E4"/>
<path d="M26 37.1328C26.6148 37.1328 27.1133 36.6344 27.1133 36.0195C27.1133 35.4047 26.6148 34.9062 26 34.9062C25.3852 34.9062 24.8867 35.4047 24.8867 36.0195C24.8867 36.6344 25.3852 37.1328 26 37.1328Z" fill="#3765E4"/>
<path d="M32.5989 29.6378L30.3135 30.9576C29.6873 30.4248 28.985 30.0183 28.2262 29.7486V27.1133H23.7731V29.7486C23.0131 30.0183 22.3108 30.4248 21.6868 30.9576L19.4004 29.6378L17.1738 33.4951L19.4428 34.8052C19.37 35.2009 19.3199 35.6032 19.3199 36.0195C19.3199 36.4359 19.37 36.8393 19.4428 37.2339L17.1738 38.5439L19.4004 42.4013L21.6856 41.0815C22.3118 41.6142 23.0142 42.0208 23.7731 42.2904V45H28.2262V42.2904C28.9861 42.0208 29.6884 41.6142 30.3125 41.0815L32.5989 42.4013L34.8254 38.5439L32.5565 37.2339C32.6293 36.8382 32.6793 36.4359 32.6793 36.0195C32.6793 35.6032 32.6293 35.1998 32.5565 34.8052L34.8254 33.4951L32.5989 29.6378ZM25.9996 39.3594C24.158 39.3594 22.6598 37.8612 22.6598 36.0195C22.6598 34.1779 24.158 32.6797 25.9996 32.6797C27.8413 32.6797 29.3395 34.1779 29.3395 36.0195C29.3395 37.8612 27.8413 39.3594 25.9996 39.3594Z" fill="#3765E4"/>
</g>
<defs>
<clipPath id="clip0_91_1423">
<rect width="38" height="38" fill="white" transform="translate(7 7)"/>
</clipPath>
</defs>
</svg>
