<svg width="39" height="39" viewBox="0 0 39 39" fill="none" xmlns="http://www.w3.org/2000/svg">
<path d="M35 38.5C36.933 38.5 38.5 36.933 38.5 35V3.5C38.5 1.567 36.933 1.13949e-06 35 1.13949e-06C33.067 1.13949e-06 31.5 1.567 31.5 3.5V31.5H3.5C1.567 31.5 1.13949e-06 33.067 1.13949e-06 35C1.13949e-06 36.933 1.567 38.5 3.5 38.5H35ZM1.52513 6.47487L17.0251 21.9749L21.9749 17.0251L6.47487 1.52513L1.52513 6.47487ZM17.0251 21.9749L32.5251 37.4749L37.4749 32.5251L21.9749 17.0251L17.0251 21.9749Z" fill="white"/>
</svg>
