<svg width="53" height="22" viewBox="0 0 53 22" fill="none" xmlns="http://www.w3.org/2000/svg">
<g clip-path="url(#clip0_91_1554)">
<path fill-rule="evenodd" clip-rule="evenodd" d="M0.61573 18.1903C0.625376 18.1037 0.644583 18.0171 0.663875 17.94L0.721581 17.6224C0.731227 17.5743 0.731227 17.5166 0.750477 17.4588C0.76008 17.4107 0.769684 17.3722 0.77933 17.3337C0.788976 17.2471 0.808183 17.1605 0.817829 17.0643C0.827475 16.9776 0.856328 16.891 0.865974 16.8237C0.865974 16.7659 0.952619 16.2751 0.971825 16.2366C0.971825 16.1596 1.08737 15.4378 1.10657 15.3993C1.11622 15.2646 1.16428 15.1105 1.17392 14.9758C1.18357 14.8218 1.24132 14.6197 1.26057 14.4657C1.27022 14.331 1.30871 14.1577 1.32796 14.023C1.33761 13.946 1.34717 13.8883 1.36646 13.8016C1.37611 13.7439 1.39536 13.6861 1.39536 13.6091C1.42421 13.5129 1.43386 13.33 1.46271 13.253C1.47236 13.1087 1.51086 12.9643 1.53011 12.8199C1.53971 12.7622 1.54931 12.7237 1.55896 12.6563C1.5686 12.6082 1.55896 12.5697 1.58785 12.5504C1.58785 12.4253 1.63596 12.3002 1.63596 12.1943C1.66485 12.0307 1.70335 11.8575 1.7226 11.6938C1.74185 11.5783 1.7611 11.4725 1.78035 11.357C1.78995 11.3185 1.79956 11.2319 1.8092 11.1934C1.81885 11.1357 1.82845 11.1164 1.82845 11.0587C1.83806 10.972 1.85731 10.8854 1.87655 10.7988C1.8862 10.7314 1.91505 10.6255 1.91505 10.5678C1.9343 10.4716 1.9536 10.3657 1.9632 10.2791C1.97285 10.0866 2.04984 9.89411 2.04984 9.69201C2.06905 9.64386 2.09799 9.48026 2.09799 9.43212C2.1172 9.33587 2.13649 9.23002 2.14613 9.14337L2.23278 8.61403C2.24238 8.57553 2.24238 8.56589 2.24238 8.52739C2.24238 8.50814 2.24238 8.50814 2.25203 8.48889L2.26167 8.46964C2.26167 8.32529 2.30978 8.15204 2.32903 8.01729C2.32903 7.95959 2.37717 7.68045 2.39642 7.65155C2.39642 7.52645 2.43492 7.47835 2.43492 7.36281C2.44457 7.31466 2.48307 7.14146 2.48307 7.08371C2.48307 7.01636 2.50227 6.98751 2.51192 6.92011L2.58892 6.51587C2.58892 6.39077 2.60817 6.33298 2.62746 6.21748C2.63706 6.17898 2.66596 5.99609 2.67556 5.94803C2.68521 5.86139 2.70446 5.80364 2.71406 5.70743C2.72371 5.64004 2.8007 5.10105 2.8296 5.0722C2.8296 4.98555 2.8392 4.96635 2.85845 4.88935C2.8681 4.82195 2.9066 4.48511 2.93549 4.45621C2.93549 4.35036 2.9547 4.27336 2.97399 4.16747C2.9932 4.07122 2.9932 4.00387 3.0221 3.92687L3.12799 3.32053C3.12799 3.24349 3.21463 2.72379 3.23384 2.69494C3.23384 2.60829 3.31084 2.14635 3.33969 2.0886C3.33969 2.0212 3.38784 1.72286 3.40709 1.68432C3.40709 1.59771 3.43594 1.44376 3.45523 1.35712C3.45523 1.29937 3.58033 0.587176 3.58994 0.548634C3.58994 0.41393 3.63808 0.250287 3.65733 0.11554C3.65733 0.0385418 3.66694 0.0577914 3.67654 0H24.6097L24.5135 0.635193C24.4943 0.731441 24.5231 0.673692 24.475 0.712191L24.4846 0.760337C24.4557 0.904687 24.3787 1.53992 24.3306 1.60727C24.3402 1.69392 24.2536 2.27136 24.2151 2.32911C24.2247 2.42532 24.1381 2.9066 24.1092 3.02205L24.0515 3.3493L23.8686 4.35027C23.8783 4.41763 23.7917 4.94697 23.7628 4.99511C23.7724 5.13946 23.7147 5.36085 23.6858 5.51485L23.5992 6.0249C23.5895 6.04415 23.5895 6.04415 23.5895 6.06344L23.5799 6.0923C23.5895 6.16929 23.5703 6.35219 23.5222 6.40989C23.5318 6.51574 23.4837 6.71789 23.4644 6.82374C23.4452 6.93923 23.3682 7.49743 23.3297 7.54553C23.3393 7.63218 23.272 8.09412 23.2238 8.15191C23.2335 8.20002 23.1853 8.59461 23.1372 8.65236C23.1564 8.77746 23.041 9.2491 23.0217 9.4223C22.9928 9.52819 22.9832 9.64369 22.964 9.74954L22.8966 10.0864C22.9062 10.1345 22.8484 10.6254 22.7907 10.7023C22.8099 10.7794 22.7811 10.9622 22.733 11.02C22.7426 11.1066 22.7138 11.2028 22.7041 11.2991L22.5983 11.8284C22.6079 11.8958 22.579 12.1172 22.5405 12.1653C22.5502 12.2615 22.502 12.5983 22.4539 12.6657C22.4635 12.7619 22.4347 12.8678 22.4154 12.9641C22.4057 13.0315 22.3865 13.2047 22.348 13.2528C22.3576 13.3106 22.348 13.3587 22.3384 13.4165C22.3384 13.4453 22.3287 13.4742 22.3192 13.5031C22.3095 13.5608 22.3192 13.532 22.2903 13.5705C22.2999 13.6379 22.2903 13.6763 22.2806 13.7341C22.2806 13.7533 22.271 13.7918 22.271 13.8111C22.2614 13.8688 22.271 13.84 22.2421 13.8785L22.1844 14.3308C22.1459 14.4463 22.2229 14.2346 22.1748 14.3597C22.1748 14.3597 22.1651 14.3789 22.1651 14.3693C22.1651 14.3693 22.1651 14.379 22.1555 14.379C22.1651 14.4367 22.1555 14.4848 22.1459 14.5426L22.1074 14.6869C22.1266 14.7639 22.0592 15.1681 22.0207 15.2259C22.0304 15.3221 21.963 15.7745 21.9149 15.8323C21.9245 15.9285 21.8764 16.2846 21.8282 16.3423C21.8379 16.4194 21.8186 16.5926 21.7801 16.6503C21.7897 16.737 21.7609 16.8428 21.7416 16.9391L21.6742 17.3626C21.6646 17.4299 21.6261 17.6994 21.5972 17.7571C21.6165 17.8534 21.578 17.9785 21.5587 18.0844C21.5395 18.1806 21.5395 18.3154 21.4914 18.3828C21.501 18.4694 21.4721 18.5657 21.4625 18.6523C21.4528 18.7293 21.4432 18.8448 21.4047 18.8928C21.424 19.0084 21.3566 19.249 21.3374 19.3741C21.3181 19.4992 21.3181 19.7302 21.2507 19.8168C21.2604 19.913 21.2122 20.2691 21.1641 20.3269C21.1737 20.4135 21.0967 20.8947 21.0582 20.9428C21.0679 21.0583 21.0005 21.3759 20.9812 21.5106C20.962 21.655 20.9908 21.6742 20.8465 21.6839H2.75239V21.6742C2.1749 21.6742 1.59746 21.6742 1.02962 21.6839H-0.000213623C0.00938982 21.6068 0.0286394 21.5202 0.0479316 21.4336L0.12493 20.9332C0.134533 20.8947 0.153783 20.7214 0.173075 20.7022C0.173075 20.6445 0.240427 20.2017 0.25972 20.1728C0.25972 20.1055 0.278926 20.0092 0.288573 19.9515C0.500318 18.7195 0.336718 19.7879 0.586962 18.1613L0.615815 18.1902L0.61573 18.1903ZM5.00446 19.865H8.25755C9.26813 14.8891 10.6156 6.95853 11.5106 1.75171L8.28649 1.75167C8.32499 2.89695 5.15854 19.0083 5.01415 19.8746L5.0045 19.865H5.00446ZM13.1467 14.6003C13.1179 14.6677 13.1082 14.7929 13.0986 14.8794C13.089 14.9661 13.0505 15.072 13.0505 15.1682C13.0505 15.2259 13.0216 15.3029 13.012 15.3607C13.0023 15.4281 12.9831 15.5147 12.9735 15.5917C12.9542 15.6206 12.9061 15.9189 12.9061 15.9863C12.8772 16.0248 12.8002 16.5157 12.8002 16.6023L12.6944 17.1412C12.6751 17.2856 12.627 17.4011 12.6462 17.5839C12.6751 17.8727 12.9253 18.0555 13.2333 18.0074C13.4643 17.9689 13.445 17.9497 13.599 17.863C13.6568 17.7668 13.8878 17.5743 13.8685 17.4203C13.907 17.3626 13.9744 16.9199 13.984 16.8525C14.0129 16.7274 14.0899 16.3424 14.0803 16.2461L14.0899 16.2173C14.0899 16.2076 14.1669 15.9863 14.1476 15.8515L14.1765 15.7553C14.1861 15.7264 14.1861 15.6879 14.1957 15.6494C14.2053 15.582 14.2342 15.5051 14.2149 15.4377C14.2246 15.4185 14.2246 15.4377 14.2341 15.3992L14.2534 15.3125C14.263 15.2451 14.263 15.2451 14.263 15.1874C14.3111 15.1297 14.3304 14.8698 14.3496 14.7736C14.3689 14.6485 14.4363 14.379 14.4266 14.2731L14.494 13.9844C14.5132 13.8785 14.5422 13.7726 14.5325 13.6764C14.5614 13.6379 14.5614 13.5802 14.5517 13.5224C14.6384 13.3877 14.5036 12.868 14.4555 12.7236C14.4074 12.5889 14.1571 12.1846 14.0802 12.1461C14.0609 12.098 13.8492 11.8092 13.8011 11.7804C13.7818 11.7226 13.8011 11.7707 13.7626 11.7226L13.4931 11.3858L13.4257 11.2799C13.3391 11.1741 12.9349 10.6447 12.8964 10.6351C12.8771 10.5677 12.7135 10.3752 12.6558 10.3078C12.6077 10.2501 12.4441 10.0191 12.4055 9.99987C12.3863 9.96137 12.1553 9.63413 12.1168 9.61488C12.0686 9.49938 11.9821 9.39349 11.9147 9.27803C11.8858 9.22989 11.8473 9.16254 11.8184 9.09514C11.7992 9.04704 11.7703 8.95079 11.7414 8.91229C11.7029 8.6909 11.6837 8.58505 11.6933 8.34445L11.7799 7.72851L11.9243 6.92003C11.9532 6.78532 12.0302 6.43883 12.011 6.32333C12.0591 6.25594 12.0976 5.94799 12.0976 5.8517C12.1361 5.80355 12.2131 5.31271 12.2035 5.24536C12.2708 5.13946 12.2997 4.68712 12.3478 4.52352C12.367 4.38882 12.4441 4.09043 12.4345 3.97497C12.4537 3.95576 12.4441 3.97497 12.4537 3.93647L12.4922 3.77287C12.5114 3.70548 12.5403 3.62848 12.5307 3.56113C12.5596 3.52263 12.5499 3.54188 12.5692 3.48409C12.5788 3.45523 12.5884 3.43598 12.5981 3.40709C12.6173 3.34938 12.6365 3.31088 12.6365 3.24349C12.6847 3.19534 12.7424 3.03174 12.7713 2.95474L12.9253 2.666C12.9734 2.63711 13.0215 2.56011 13.06 2.512C13.1082 2.44461 13.1467 2.41576 13.2044 2.36761C13.2525 2.32911 13.522 2.14626 13.5316 2.12701C13.6183 2.09816 13.7145 2.03081 13.8107 1.99231C13.907 1.95377 13.9936 1.91527 14.0995 1.88641C14.3209 1.81906 14.5133 1.79021 14.7539 1.77092C15.4373 1.75171 16.1399 1.77092 16.8328 1.77092C17.4969 1.77092 18.1225 1.82862 18.4786 2.21361C18.5556 2.29061 18.7192 2.512 18.7673 2.64675C18.8058 2.76225 18.854 2.84885 18.8828 2.97399C18.9117 3.1087 18.9213 3.23384 18.9213 3.39744C18.9213 3.45519 18.9117 3.56108 18.9021 3.63804C18.8925 3.71504 18.8733 3.81129 18.8733 3.89793C18.8636 3.98457 18.8348 4.09043 18.8251 4.17703C18.8155 4.27328 18.7962 4.40802 18.7674 4.48502C18.7674 4.55237 18.7385 4.65827 18.7289 4.73527C18.7097 4.83147 18.6904 4.92776 18.6807 5.01436C18.6711 5.04322 18.6326 5.26461 18.6326 5.30311C18.623 5.3705 18.6037 5.44746 18.5845 5.53406C18.5653 5.63031 18.546 5.71695 18.546 5.81316C18.5171 5.8998 18.5075 6.0153 18.4882 6.12115C18.469 6.24625 18.4497 6.34254 18.4305 6.45799C18.4305 6.52539 18.392 6.68895 18.3824 6.74674C18.3727 6.80449 18.3727 6.82374 18.3632 6.89113C18.3535 6.93923 18.3343 6.99698 18.3343 7.06433C18.3247 7.13173 18.3054 7.21833 18.2861 7.29533C18.2669 7.38197 18.2477 7.47818 18.2477 7.55518C18.238 7.61293 18.2188 7.68992 18.1995 7.76692L15.6298 7.77657C15.6298 7.59372 15.7453 7.26648 15.7356 7.09319C15.7838 7.03548 15.8319 6.6697 15.8223 6.58314C15.8415 6.55424 15.8319 6.58314 15.8415 6.53499L15.9185 6.0249C15.9762 5.95751 16.0244 5.40896 16.0629 5.28381C16.0821 5.14907 16.1399 4.94697 16.1303 4.82182C16.1688 4.76412 16.1688 4.61972 16.1976 4.55237L16.2073 4.45613L16.2361 4.33102C16.3132 3.95568 16.1688 3.62844 15.7742 3.62844C15.4566 3.62844 15.1293 3.82093 15.0331 4.09043C15.0139 4.13857 15.0139 4.16742 14.9946 4.20592C14.9754 4.30217 14.9465 4.43692 14.9465 4.53317C14.9272 4.61981 14.9176 4.67752 14.8983 4.77376C14.8791 4.87001 14.8598 4.94701 14.8598 5.05286L14.8213 5.19721L14.7924 5.37046C14.7732 5.49556 14.7443 5.61106 14.7347 5.7266C14.7059 5.7458 14.7155 5.80359 14.7059 5.8517C14.6962 5.91905 14.6866 5.93834 14.677 5.99605C14.6673 6.08269 14.6288 6.20779 14.6288 6.29444C14.6096 6.37144 14.6 6.43879 14.5807 6.53504C14.5615 6.63124 14.5422 6.70828 14.5422 6.81413C14.5133 6.85263 14.4748 7.13173 14.4652 7.22798C14.4555 7.29533 14.4363 7.56482 14.4555 7.63222C14.4748 7.68992 14.4363 7.65143 14.4844 7.68036C14.4363 7.81507 14.6095 8.15196 14.6865 8.2867C14.7347 8.3637 14.6769 8.31556 14.7539 8.3541C14.7443 8.4022 14.7443 8.3637 14.7539 8.4022C14.7539 8.42145 14.7731 8.4407 14.7828 8.45995L15.2448 9.08554C15.2833 9.11439 15.2159 9.08554 15.2833 9.11439C15.2833 9.1721 15.5142 9.44164 15.5624 9.48013L15.9088 9.88437C15.9088 9.89402 15.8896 9.89402 15.9377 9.96137L16.3708 10.5004L16.6114 10.7988C16.6788 10.8854 16.6499 10.8661 16.7076 10.895C16.7173 10.9527 16.852 11.1163 16.8905 11.1837C16.9675 11.2992 17.0349 11.4628 17.0926 11.4917C17.0734 11.5494 17.083 11.5109 17.1118 11.5783C17.1311 11.6072 17.1311 11.6168 17.1503 11.665L17.2754 12.0211C17.314 12.1655 17.2851 12.1751 17.3332 12.2136C17.285 12.3291 17.314 12.5024 17.314 12.6274C17.3043 12.7045 17.2947 12.7237 17.2947 12.82C17.2755 12.8488 17.2081 13.3204 17.2081 13.3974C17.1792 13.4263 17.2081 13.3878 17.1889 13.4359C17.1889 13.4455 17.1792 13.5033 17.1792 13.5033C17.1696 13.5707 17.16 13.6091 17.16 13.6669C17.1408 13.7054 17.0734 14.1 17.0734 14.1577C17.0542 14.2348 17.0349 14.3503 17.0252 14.4465C17.0156 14.5524 16.9771 14.6486 16.9771 14.7737C16.9579 14.793 16.9579 14.8411 16.9482 14.8796C16.9386 14.9373 16.9386 14.9663 16.929 15.0143C16.9098 15.1106 16.9001 15.2165 16.8809 15.3031C16.8809 15.3993 16.8327 15.5341 16.8327 15.6496C16.8135 15.6785 16.7846 15.8709 16.7846 15.9287C16.7654 16.0634 16.7269 16.1981 16.7172 16.3425C16.698 16.3906 16.6498 16.6793 16.6498 16.7563C16.621 16.7755 16.621 16.8525 16.621 16.8911C16.6114 16.9584 16.6017 16.9873 16.5921 17.0547C16.5729 17.1702 16.544 17.2953 16.5344 17.4108C16.5151 17.4589 16.4959 17.5648 16.4862 17.6225C16.467 17.6899 16.4381 17.7958 16.4285 17.8728L16.2649 18.3348C16.1783 18.5465 16.0724 18.6716 16.0339 18.7679C16.0147 18.7775 15.8992 18.9411 15.8703 18.9796C15.8319 19.0277 15.8222 19.0373 15.7837 19.0855L15.6779 19.201C15.6009 19.3068 15.2929 19.5282 15.1485 19.5859C15.0715 19.6148 15.0041 19.6341 14.9271 19.6822C14.8405 19.6918 14.5036 19.8073 14.1957 19.8169L13.3391 19.8361C13.1755 19.8361 13.0696 19.8554 12.9253 19.8554L11.8088 19.8555C11.703 19.8555 11.6837 19.8362 11.5874 19.8362C11.5393 19.8362 11.4046 19.8074 11.3469 19.7977C11.3083 19.7881 11.2795 19.7881 11.2313 19.7785C11.1832 19.7689 11.164 19.7496 11.1062 19.7496C10.7694 19.6726 10.6731 19.5571 10.4999 19.432C10.471 19.4128 10.4902 19.4224 10.471 19.4128C10.4421 19.3647 10.471 19.4032 10.4325 19.3551C10.4229 19.3359 10.4133 19.3359 10.4036 19.3166L10.0764 18.7006C10.0668 18.614 10.0379 18.537 10.0283 18.4504C10.0186 18.3542 10.0379 18.2675 10.0186 18.1809C10.0475 18.1232 10.086 17.6804 10.0957 17.5746C10.1149 17.4206 10.1919 17.103 10.1823 16.9779C10.2208 16.9201 10.2496 16.718 10.24 16.6506L10.2496 16.6217C10.2496 16.6217 10.3363 16.3041 10.317 16.179C10.3555 16.1309 10.4517 15.5631 10.4421 15.4764L10.4806 15.3321C10.4902 15.2647 10.5095 15.2262 10.4902 15.1685L10.5095 15.1107C10.5095 15.1011 10.5191 15.0626 10.5191 15.053C10.5287 15.0145 10.5287 14.976 10.5383 14.9375C10.548 14.8605 10.5768 14.7739 10.5672 14.6969C10.6153 14.6295 10.6634 14.3119 10.6538 14.2157C10.6923 14.158 10.7693 13.619 10.7885 13.5035C10.8463 13.4554 12.0013 13.4843 12.0686 13.4843H13.3776L13.2814 14.0521L13.2428 14.2735C13.2236 14.3793 13.1851 14.4852 13.1851 14.6007H13.1466L13.1467 14.6003Z" fill="white"/>
<path fill-rule="evenodd" clip-rule="evenodd" d="M32.2999 8.36395L32.3769 9.57667C32.3865 9.64407 32.3865 9.69217 32.3865 9.78842C32.3865 9.88467 32.4057 9.89427 32.4057 9.99052C32.4057 10.26 32.4539 10.5391 32.4539 10.8182L32.4827 11.2128C32.5019 11.3572 32.5019 11.4919 32.5019 11.6363C32.5019 11.7518 32.5308 11.9154 32.5404 12.0309L32.5693 12.6277C32.5693 12.7239 32.5885 12.7432 32.5885 12.8298L32.6367 13.6575C32.6367 13.7537 32.6559 13.7633 32.6559 13.8596C32.6559 14.1002 32.6848 14.2157 32.6848 14.4755L32.7233 14.8893L31.0101 14.8893L31.3277 13.2532C31.3759 12.9741 31.4433 12.7142 31.4913 12.435C31.5106 12.3003 31.5395 12.1752 31.5684 12.0308C31.5972 11.8864 31.6261 11.7613 31.6454 11.617L31.963 9.98083C32.0207 9.71138 32.0592 9.43228 32.1266 9.16274L32.2421 8.55636C32.2517 8.51786 32.2517 8.50826 32.2613 8.45051L32.2902 8.34466L32.2998 8.36386L32.2999 8.36395ZM41.5779 11.2321H39.9128C39.8454 11.2321 39.8743 11.1743 39.8743 11.0973L40.0668 8.04635C40.0668 7.95011 40.086 7.9405 40.086 7.85386L40.1437 6.83367C40.1533 6.76628 40.1533 6.70857 40.1533 6.63153C40.1533 6.45833 40.2015 6.02519 40.2015 5.82309C40.2015 5.72689 40.2207 5.7076 40.2207 5.62099L40.24 5.20715C40.2496 5.09165 40.2688 4.91841 40.2688 4.7933H42.0494C42.5402 4.7933 42.3958 5.15905 42.3958 5.54404L42.1745 8.98958C42.1745 9.06658 42.1841 9.13393 42.1745 9.21097C42.1263 9.64407 42.1263 10.2023 42.0782 10.6258C42.0494 10.8856 42.1552 11.2225 41.5778 11.2225V11.2321L41.5779 11.2321ZM29.9322 20.202C29.9707 20.0192 30.0092 19.8171 30.0477 19.6342C30.0862 19.4321 30.1248 19.2492 30.1633 19.0471C30.2017 18.8546 30.2402 18.6621 30.2787 18.4601C30.3172 18.2675 30.3557 18.0654 30.4038 17.8826L32.9447 17.8825C32.9447 18.0461 32.9928 18.306 32.9928 18.4696C33.0025 18.7584 33.0506 19.0567 33.0602 19.3455C33.0698 19.538 33.1083 19.7401 33.1083 19.9422C33.1083 20.0288 33.0987 20.202 33.1757 20.202H39.2487C39.3257 20.202 39.2969 20.0673 39.3161 19.8748C39.3354 19.6342 39.3353 19.3743 39.3642 19.1337C39.3739 19.076 39.3642 19.0086 39.3642 18.9509L39.4316 18.0173C39.4508 17.8441 39.4413 17.6227 39.4701 17.4494C39.499 17.2666 39.4893 17.0741 39.5086 16.8816C39.5183 16.8239 39.5086 16.7661 39.5183 16.6987L39.6145 15.2069C39.6145 15.1299 39.6145 15.0818 39.6241 15.0048C39.653 14.793 39.6723 14.4562 39.6723 14.2445H40.115C40.1823 14.2445 40.1727 14.3311 40.192 14.3889L40.6828 16.4485C40.7405 16.6891 40.8079 16.9682 40.8657 17.2088C41.0582 17.9595 41.2411 18.7006 41.4047 19.4609L41.5394 20.0288C41.5586 20.0962 41.5491 20.1924 41.6164 20.1924H45.4373C45.4373 20.1057 45.3699 19.9133 45.3411 19.817L44.9465 18.3445C44.7925 17.7189 44.6 17.1029 44.446 16.4774C44.292 15.8614 44.0995 15.2358 43.9552 14.6198C43.9263 14.4947 43.8782 14.3696 43.8493 14.2445C44.3209 14.2445 44.677 14.1194 44.9368 13.9077C45.37 13.5612 45.6394 13.0318 45.6298 12.4447L45.8416 9.07618C45.8608 8.97033 45.8512 8.83559 45.8704 8.73934L45.9089 8.05596C45.9089 7.97896 45.9186 7.95975 45.9281 7.90196C45.9378 7.83461 45.9281 7.78646 45.9378 7.71911C45.9667 7.55551 45.957 7.38227 45.9667 7.21862L46.0148 6.54493C46.0244 6.38129 46.0244 6.18879 46.0437 6.02519L46.1014 5.00501H47.2467C47.2467 5.3226 47.1985 5.6306 47.1985 5.94819L47.1311 6.89138C47.1119 7.05498 47.1215 7.20898 47.1119 7.37258L47.0445 8.31576C47.0445 8.48901 47.0349 8.65261 47.0157 8.79696L46.7847 12.589C46.7655 12.7237 46.7655 12.9258 46.7558 13.0606C46.7558 13.1473 46.7366 13.1761 46.7366 13.282L46.4286 18.2867C46.419 18.4311 46.3901 18.6043 46.3901 18.7487L46.3324 19.7016C46.3132 19.8459 46.3035 20.0192 46.3035 20.1828H50.0764C50.1534 20.1828 50.1245 20.0769 50.1245 19.9903C50.1245 19.8363 50.163 19.6823 50.163 19.5091L50.24 18.3156C50.2592 18.1905 50.2689 17.9884 50.2689 17.844C50.2689 17.7574 50.2881 17.7189 50.2881 17.6034C50.2881 17.4879 50.3073 17.4591 50.3073 17.3628C50.3073 17.2377 50.3169 17.0164 50.3362 16.8912C50.3651 16.7276 50.3458 16.564 50.3651 16.4003C50.3747 16.256 50.3939 16.0924 50.3939 15.9384L50.4325 15.4572C50.4325 15.3513 50.4421 15.3128 50.4517 15.2358L50.4902 14.4947C50.5094 14.2156 50.5479 13.8306 50.5575 13.5515L50.6057 12.589C50.6153 12.4447 50.6442 12.2811 50.6442 12.1271C50.6442 11.9634 50.673 11.7998 50.6827 11.6459C50.6923 11.309 50.7212 11.0203 50.7308 10.6834L51.0677 5.45731C51.0773 5.37066 51.0773 5.30331 51.0773 5.20706C51.0773 5.12042 51.0965 5.08196 51.0965 4.96647H53.5989C53.5315 4.68737 53.4834 4.39862 53.416 4.10028L53.1562 2.80095C53.1273 2.64696 53.0984 2.51221 53.0695 2.35826C53.0406 2.22351 53.0118 2.06951 52.9829 1.93477C52.954 1.78077 52.9058 1.63638 52.9058 1.48242H45.9762C45.9666 1.54982 45.9473 1.59796 45.9281 1.65567C45.8703 1.81927 45.7933 2.00216 45.7548 2.16576H45.7163C45.6971 2.09837 45.6297 2.05022 45.5816 2.00212C45.4757 1.89627 45.3506 1.82891 45.2255 1.76152C44.9079 1.56902 44.4074 1.48242 43.9839 1.48242H36.7271C36.7271 1.74231 36.6886 1.94441 36.6886 2.18501C36.6886 2.26205 36.6789 2.2909 36.6789 2.33901C36.6693 2.4064 36.6789 2.46411 36.6693 2.5219C36.6597 2.6181 36.6501 2.77214 36.6404 2.86839C36.6308 2.9261 36.6404 2.98389 36.6404 3.04159L36.5827 3.92707C36.5538 4.13882 36.5442 4.71631 36.525 4.98576L36.4961 5.5055C36.4961 5.68835 36.4576 5.84234 36.4576 6.01555L36.3517 7.59397C36.3421 7.88271 36.294 8.18106 36.3036 8.4698C36.3036 8.75854 36.2651 9.05689 36.2555 9.34564L36.1207 11.4245C36.1207 11.8383 36.0533 12.2618 36.0533 12.6757H36.0341C36.0341 12.3292 35.909 11.6747 35.8801 11.2898L35.8513 11.0588C35.8416 10.9626 35.8416 10.9144 35.832 10.8278L35.5048 8.0656C35.4181 7.45922 35.3797 6.82403 35.2834 6.22729L35.2257 5.76534L34.7348 1.60757C34.7156 1.43432 34.6963 1.49207 34.3306 1.49207L30.7118 1.49203L30.0573 4.19648C29.5472 6.22725 29.0756 8.26762 28.5655 10.308C28.5078 10.5294 28.45 10.7604 28.4019 10.9818L27.3336 15.3801L27.2469 15.7266L26.2556 19.7977C26.2459 19.8266 26.1689 20.1346 26.1689 20.1346C26.1786 20.1827 26.1689 20.1635 26.2267 20.1635H29.9321V20.202L29.9322 20.202Z" fill="white"/>
</g>
<defs>
<clipPath id="clip0_91_1554">
<rect width="52.3379" height="21.6839" fill="white"/>
</clipPath>
</defs>
</svg>
